<?xml version="1.0" standalone="no"?>
<!DOCTYPE svg PUBLIC "-//W3C//DTD SVG 20010904//EN"
 "http://www.w3.org/TR/2001/REC-SVG-20010904/DTD/svg10.dtd">
<svg version="1.0" xmlns="http://www.w3.org/2000/svg"
 width="300.000000pt" height="95.000000pt" viewBox="0 0 300.000000 95.000000"
 preserveAspectRatio="xMidYMid meet">
<metadata>
Created by potrace 1.10, written by Peter Selinger 2001-2011
</metadata>
<g transform="translate(0.000000,95.000000) scale(0.100000,-0.100000)"
fill="#000000" stroke="none">
<path d="M1785 880 c-31 -16 -73 -43 -93 -60 -26 -22 -48 -30 -77 -31 -69 -1
-258 -43 -263 -58 -5 -15 8 -14 133 12 39 8 88 18 109 22 l39 7 -31 -37 c-42
-47 -70 -102 -83 -164 -9 -43 -8 -56 9 -94 18 -40 54 -76 92 -90 8 -3 -2 -6
-23 -6 -20 -1 -70 10 -109 24 -39 14 -81 25 -93 25 -32 0 -54 30 -61 86 -4 27
-11 55 -17 62 -38 48 -157 -57 -157 -140 0 -17 -8 -29 -25 -36 -67 -31 -94 0
-75 85 6 30 9 58 5 61 -4 4 -9 3 -12 -3 -14 -38 -100 -189 -107 -189 -5 -1
-15 21 -24 47 -14 43 -14 51 1 81 37 78 49 258 19 288 -17 17 -42 0 -69 -48
-27 -47 -31 -136 -8 -210 19 -63 20 -58 -16 -99 -22 -25 -39 -35 -61 -35 -37
0 -88 48 -88 84 0 27 -18 45 -24 24 -3 -7 -7 -30 -11 -50 -3 -21 -10 -38 -15
-38 -4 0 -16 23 -25 51 -12 35 -20 48 -28 40 -7 -7 -5 -23 7 -54 32 -84 58
-98 71 -38 l6 29 32 -34 c22 -23 44 -37 70 -41 35 -5 41 -2 76 36 l39 42 6
-33 c3 -19 13 -44 22 -56 20 -30 36 -18 73 56 l27 54 13 -41 c14 -49 43 -60
93 -37 31 15 38 15 63 2 33 -17 48 -10 93 47 l29 36 21 -24 c12 -14 34 -27 49
-31 15 -3 56 -15 91 -26 45 -14 79 -18 120 -15 134 12 178 13 200 5 30 -10 55
3 116 61 27 25 50 41 53 35 2 -6 10 -20 18 -30 13 -18 16 -18 42 -4 25 14 31
14 54 1 34 -19 69 -9 115 34 20 19 38 35 39 35 1 0 0 -13 -3 -29 -2 -16 0 -37
5 -46 9 -15 14 -12 48 19 35 33 39 35 51 18 7 -9 14 -20 14 -24 1 -17 71 -48
109 -48 48 0 86 17 121 55 14 15 37 33 51 40 24 13 27 11 68 -37 24 -27 73
-69 110 -93 73 -47 131 -98 131 -114 0 -6 5 -11 10 -11 6 0 10 8 10 19 0 22
-53 72 -132 124 -59 39 -148 128 -148 148 0 11 -16 9 -51 -5 -12 -5 -14 0 -11
29 4 31 1 36 -24 46 -35 13 -109 5 -141 -17 -31 -20 -43 -53 -30 -81 12 -27
72 -57 100 -49 19 5 19 4 4 -11 -9 -10 -34 -16 -61 -17 -61 -1 -103 31 -130
99 -2 6 -20 -5 -40 -24 -19 -19 -38 -33 -40 -30 -2 2 0 26 5 53 5 27 7 51 5
54 -3 2 -31 -23 -64 -57 -63 -64 -90 -74 -128 -47 -17 13 -22 13 -43 -1 -22
-14 -25 -14 -37 2 -8 10 -11 29 -8 42 4 12 3 23 -2 23 -4 0 -37 -31 -73 -70
-40 -42 -74 -70 -86 -70 -17 0 -16 3 7 17 15 10 30 23 33 31 6 17 -17 69 -47
106 -20 24 -30 28 -51 22 -27 -6 -57 -50 -57 -83 0 -10 7 -31 15 -47 8 -15 15
-30 15 -32 0 -12 -91 -1 -127 15 -77 36 -93 114 -44 216 16 33 45 78 65 99 35
39 37 40 143 52 188 23 226 43 189 99 -25 37 -105 35 -181 -5z m159 -6 c21
-20 20 -23 -9 -34 -34 -13 -215 -43 -221 -37 -6 6 98 66 134 77 44 13 79 11
96 -6z m-1007 -211 c-3 -49 -14 -110 -23 -138 l-18 -50 -12 40 c-25 81 -15
176 23 217 31 34 36 21 30 -69z m373 -137 c0 -21 -8 -40 -22 -53 -29 -27 -96
-55 -103 -43 -7 11 18 68 42 96 45 51 83 51 83 0z m1286 29 c9 -24 -15 -72
-39 -79 -64 -17 -126 11 -113 51 9 27 41 42 99 42 34 1 49 -3 53 -14z m-778
-48 c28 -42 28 -62 0 -81 -30 -21 -55 -20 -68 3 -22 42 -5 111 28 111 9 0 27
-15 40 -33z m-571 -97 c-27 -21 -47 -26 -47 -11 0 5 12 14 28 19 42 16 47 14
19 -8z"/>
<path d="M520 866 c-113 -40 -220 -94 -322 -162 -122 -81 -203 -179 -147 -179
8 0 14 5 14 12 0 37 102 125 239 205 76 45 236 113 288 122 l33 7 -45 -38
c-25 -21 -64 -56 -88 -78 l-42 -40 10 -85 c6 -47 22 -148 37 -225 43 -230 33
-316 -39 -346 -62 -26 -192 23 -280 105 -47 43 -59 68 -38 81 20 12 10 26 -10
15 -31 -17 -24 -52 18 -94 111 -113 278 -168 345 -116 57 45 64 153 22 355
-14 72 -29 171 -32 220 l-6 90 59 49 c83 70 111 105 93 117 -21 13 -37 11
-109 -15z"/>
</g>
</svg>
